<?xml version="1.0" standalone="no"?>
<!DOCTYPE svg PUBLIC "-//W3C//DTD SVG 20010904//EN"
 "http://www.w3.org/TR/2001/REC-SVG-20010904/DTD/svg10.dtd">
<svg version="1.0" xmlns="http://www.w3.org/2000/svg"
 width="154.000000pt" height="179.000000pt" viewBox="0 0 154.000000 179.000000"
 preserveAspectRatio="xMidYMid meet">

<g transform="translate(0.000000,179.000000) scale(0.100000,-0.100000)"
[attr.fill]="routeActivated ? '#3063F5' : 'white'" stroke="none">
<path d="M527 1513 c-4 -3 -7 -55 -7 -113 l0 -108 53 -23 c73 -32 192 -33 260
-2 l48 22 -3 113 c-3 100 -5 113 -21 116 -10 2 -28 -5 -39 -15 -29 -26 -206
-27 -235 0 -20 17 -45 22 -56 10z"/>
<path d="M423 1185 c-211 -185 -322 -538 -229 -728 46 -96 143 -148 304 -167
98 -11 280 -13 358 -4 l51 6 -31 61 c-42 82 -48 184 -15 272 44 118 177 215
294 215 25 0 45 4 45 9 0 5 -10 30 -21 57 -36 83 -126 210 -190 267 l-60 55
-57 -26 c-44 -21 -76 -27 -143 -30 -82 -4 -135 8 -239 52 -10 4 -34 -10 -67
-39z m317 -160 c0 -9 9 -15 21 -15 11 0 34 -13 50 -29 34 -34 39 -71 10 -71
-11 0 -26 -3 -34 -6 -10 -3 -18 2 -22 15 -12 37 -25 22 -25 -29 0 -49 0 -49
45 -69 102 -45 99 -181 -4 -227 -31 -13 -41 -24 -41 -41 0 -16 -6 -23 -20 -23
-14 0 -20 7 -20 23 0 16 -10 26 -40 39 -40 16 -80 67 -80 101 0 13 9 17 40 17
27 0 40 -4 40 -14 0 -7 7 -19 15 -26 13 -11 15 -5 15 44 0 51 -2 57 -29 71
-93 47 -96 184 -6 216 19 7 35 19 35 26 0 7 11 13 25 13 16 0 25 -6 25 -15z"/>
<path d="M676 928 c-18 -27 -18 -29 0 -55 l19 -28 3 28 c2 15 2 39 0 55 l-3
27 -19 -27z"/>
<path d="M740 700 c0 -55 11 -63 36 -25 14 21 15 31 6 50 -20 44 -42 31 -42
-25z"/>
<path d="M1090 751 c-38 -14 -69 -34 -102 -69 -168 -176 -30 -461 213 -439
168 15 278 184 225 343 -46 138 -199 214 -336 165z m108 -123 c7 -7 12 -29 12
-50 0 -37 1 -38 39 -38 42 0 65 -18 59 -47 -2 -13 -15 -19 -48 -23 -45 -5 -45
-5 -50 -50 -4 -33 -10 -46 -23 -48 -29 -6 -47 17 -47 59 0 37 -1 38 -41 41
-79 6 -76 68 2 68 38 0 39 1 39 38 0 38 14 62 35 62 6 0 16 -5 23 -12z"/>
</g>
</svg>
