<?xml version="1.0" standalone="no"?>
<!DOCTYPE svg PUBLIC "-//W3C//DTD SVG 20010904//EN"
 "http://www.w3.org/TR/2001/REC-SVG-20010904/DTD/svg10.dtd">
<svg version="1.0" xmlns="http://www.w3.org/2000/svg"
 width="225.000000pt" height="225.000000pt" viewBox="0 0 225.000000 225.000000"
 preserveAspectRatio="xMidYMid meet">

<g transform="translate(0.000000,225.000000) scale(0.100000,-0.100000)"
[attr.fill]="routeActivated ? '#3063F5' : 'white'" stroke="none">
<path d="M1010 1619 l1 -514 94 100 c86 90 93 101 72 105 -40 10 -26 35 22 38
24 2 55 11 70 20 25 17 25 17 -44 22 -53 4 -70 9 -70 20 0 13 39 15 278 18
272 2 277 2 277 -18 0 -19 -6 -20 -145 -20 -143 0 -145 0 -135 -20 10 -18 21
-20 146 -20 124 0 135 -2 132 -17 -3 -16 -18 -18 -126 -21 -114 -2 -122 -4
-122 -22 0 -19 7 -20 126 -20 114 0 125 -2 122 -17 -3 -16 -18 -18 -128 -21
-118 -3 -139 -8 -140 -34 0 -5 61 -8 136 -8 124 0 135 -2 132 -17 -3 -16 -20
-19 -147 -23 -103 -4 -146 -9 -149 -17 -3 -10 29 -13 135 -13 142 0 170 -6
160 -34 -5 -13 -32 -16 -173 -18 l-166 -3 -65 -92 -65 -93 284 0 c240 0 287 2
306 16 l22 15 0 612 0 611 -35 -34 -35 -34 -35 34 -35 34 -35 -34 -35 -34 -35
34 -35 34 -35 -34 -35 -34 -35 34 -35 34 -35 -34 -35 -34 -35 34 -35 34 -35
-34 -35 -34 -35 34 -35 34 -35 -34 -35 -34 -35 34 -35 34 0 -515z m450 351 c0
-15 7 -20 25 -20 26 0 29 -9 18 -48 -5 -21 -10 -23 -39 -17 -47 8 -45 -15 4
-46 33 -21 37 -29 40 -70 3 -40 -1 -50 -22 -67 -15 -11 -26 -25 -26 -31 0 -17
-47 -13 -54 4 -3 8 -15 15 -26 15 -16 0 -20 6 -20 35 l0 35 40 -6 c51 -8 53 9
5 37 -64 38 -73 92 -25 141 17 16 30 36 30 44 0 8 10 14 25 14 18 0 25 -5 25
-20z m250 -400 c0 -20 -7 -20 -274 -20 -265 0 -297 3 -281 30 4 6 108 10 281
10 267 0 274 0 274 -20z m0 -80 c0 -20 -7 -20 -274 -20 -265 0 -297 3 -281 30
4 6 108 10 281 10 267 0 274 0 274 -20z"/>
<path d="M796 1508 c-122 -163 -185 -256 -198 -291 -20 -60 -23 -147 -7 -267
6 -47 12 -139 12 -204 l2 -120 209 -82 209 -83 48 52 c26 29 55 67 64 85 18
37 35 127 35 190 0 47 6 58 125 227 104 148 128 198 129 261 1 62 -22 94 -66
94 -50 0 -80 -24 -237 -194 -190 -207 -221 -220 -221 -96 0 66 21 160 55 245
24 60 25 71 23 242 l-3 180 -179 -239z"/>
<path d="M482 578 c-22 -24 -82 -170 -82 -201 0 -10 6 -30 14 -46 13 -24 49
-41 262 -125 241 -95 249 -97 283 -84 32 12 40 23 73 103 68 165 68 165 -233
284 -127 50 -245 91 -263 91 -21 0 -40 -8 -54 -22z"/>
</g>
</svg>
