<?xml version="1.0" standalone="no"?>
<!DOCTYPE svg PUBLIC "-//W3C//DTD SVG 20010904//EN"
 "http://www.w3.org/TR/2001/REC-SVG-20010904/DTD/svg10.dtd">
<svg version="1.0" xmlns="http://www.w3.org/2000/svg"
 width="523.000000pt" height="477.000000pt" viewBox="0 0 523.000000 477.000000"
 preserveAspectRatio="xMidYMid meet">

<g transform="translate(0.000000,477.000000) scale(0.100000,-0.100000)"
fill="White" stroke="none">
<path d="M4300 4509 c-241 -32 -1053 -145 -1656 -232 -414 -60 -434 -66 -494
-149 -54 -74 -56 -98 -26 -333 36 -283 38 -261 -31 -275 -157 -31 -351 -104
-412 -155 -40 -34 -244 -341 -366 -550 -107 -183 -289 -514 -402 -731 l-84
-162 97 -123 c86 -110 256 -318 581 -714 116 -140 101 -136 273 -79 423 139
664 379 923 914 241 500 210 445 311 545 70 68 122 108 216 164 167 99 254
164 302 225 110 139 138 305 72 427 -72 131 -230 141 -460 29 -136 -66 -212
-125 -428 -333 -198 -191 -215 -202 -439 -294 -144 -59 -356 -133 -383 -133
-23 0 -44 18 -44 37 0 17 36 34 155 76 142 49 357 135 378 152 18 13 18 18 -2
157 -36 248 -61 442 -61 475 0 26 4 32 28 37 201 42 2326 336 2338 324 7 -7
66 -424 90 -626 19 -170 16 -190 -38 -218 -15 -8 -262 -48 -550 -89 -288 -41
-537 -77 -554 -80 -17 -3 -64 -30 -104 -60 -41 -31 -142 -97 -224 -148 -113
-69 -171 -113 -237 -178 -80 -78 -92 -96 -148 -210 -34 -69 -61 -131 -61 -137
0 -15 81 -16 135 -1 55 15 180 78 255 129 141 95 195 185 205 342 l7 97 31 6
c18 2 241 34 497 70 724 102 777 111 828 141 47 28 96 95 112 154 10 37 -24
314 -116 940 -56 387 -69 449 -101 494 -30 41 -108 90 -158 99 -16 2 -131 -9
-255 -24z m275 -133 c29 -19 54 -93 57 -171 l3 -59 -265 -38 c-842 -119 -2063
-288 -2085 -288 -20 0 -24 8 -34 75 -16 108 -14 121 17 155 33 37 -50 24 1247
209 501 71 924 132 940 134 45 7 94 0 120 -17z"/>
<path d="M3226 2084 c-119 -75 -205 -105 -316 -111 l-97 -6 -31 -73 c-18 -40
-32 -78 -32 -84 0 -13 119 -13 196 1 67 12 243 92 290 132 28 24 56 82 79 165
9 32 -9 27 -89 -24z"/>
<path d="M584 1924 c-21 -15 -75 -57 -119 -94 -168 -142 -184 -163 -168 -222
7 -23 274 -355 729 -903 172 -208 199 -223 280 -169 65 44 221 173 253 210 44
50 43 97 -6 161 -143 187 -817 989 -859 1022 -35 28 -63 26 -110 -5z"/>
<path d="M3149 1800 c-98 -50 -172 -70 -257 -70 -44 0 -107 -3 -140 -6 l-62
-7 -30 -54 c-17 -30 -29 -57 -26 -60 3 -3 46 -10 97 -15 212 -23 395 46 460
175 32 61 23 69 -42 37z"/>
</g>
</svg>
