<?xml version="1.0" standalone="no"?>
<!DOCTYPE svg PUBLIC "-//W3C//DTD SVG 20010904//EN"
 "http://www.w3.org/TR/2001/REC-SVG-20010904/DTD/svg10.dtd">
<svg version="1.0" xmlns="http://www.w3.org/2000/svg"
 width="200.000000pt" height="200.000000pt" viewBox="0 0 200.000000 200.000000"
 preserveAspectRatio="xMidYMid meet">

<g transform="translate(0.000000,200.000000) scale(0.100000,-0.100000)"
fill="white" stroke="none">
<path d="M1620 1744 c-118 -52 -223 -97 -233 -101 -16 -8 -16 -11 9 -43 14
-19 36 -56 49 -82 l22 -48 104 91 c141 124 149 130 110 84 -67 -78 -245 -265
-253 -265 -4 0 -8 8 -8 19 0 41 -70 158 -129 215 -188 178 -470 177 -651 -4
-185 -185 -182 -483 6 -666 46 -44 172 -114 205 -114 11 0 19 -4 19 -9 0 -4
-43 -49 -95 -100 l-95 -92 7 -137 c8 -129 9 -137 29 -140 15 -2 32 12 63 53
24 32 47 53 51 48 4 -4 62 -87 129 -184 66 -97 127 -181 134 -188 10 -8 18 -7
29 2 13 9 748 1712 748 1731 0 3 -8 9 -17 15 -14 7 -71 -14 -233 -85z m-487
-129 c105 -53 195 -177 205 -285 3 -41 1 -48 -30 -77 l-33 -32 -1 57 c0 122
-65 226 -172 279 -76 37 -181 39 -258 5 -64 -29 -126 -92 -156 -157 -34 -76
-32 -181 5 -257 53 -107 157 -172 279 -172 l57 -1 -32 -33 c-30 -32 -35 -34
-83 -29 -118 12 -250 117 -294 234 -27 71 -29 187 -6 253 37 103 121 190 225
231 36 15 66 19 141 16 83 -2 104 -7 153 -32z m-133 -120 c0 -20 5 -25 26 -25
39 0 84 -50 84 -95 0 -35 -1 -36 -32 -33 -28 2 -34 8 -36 31 l-3 28 -72 -3
c-72 -3 -72 -3 -75 -33 -5 -42 19 -55 99 -55 63 0 69 -2 93 -31 28 -33 36
-102 16 -140 -12 -22 -61 -49 -90 -49 -13 0 -20 -7 -20 -20 0 -16 -7 -20 -30
-20 -23 0 -30 5 -30 19 0 13 -9 21 -30 26 -39 9 -70 49 -70 91 0 31 3 34 29
34 24 0 29 -5 35 -30 l6 -31 67 3 68 3 0 40 0 40 -77 5 c-102 7 -128 29 -128
108 0 46 4 58 29 83 17 17 40 29 55 29 21 0 26 5 26 25 0 21 5 25 30 25 25 0
30 -4 30 -25z"/>
<path d="M263 1152 c-145 -63 -173 -79 -173 -96 0 -17 59 -58 276 -195 l276
-174 54 54 54 53 -52 30 c-114 66 -206 189 -243 327 l-20 75 -172 -74z"/>
</g>
</svg>
