<?xml version="1.0" standalone="no"?>
<!DOCTYPE svg PUBLIC "-//W3C//DTD SVG 20010904//EN"
 "http://www.w3.org/TR/2001/REC-SVG-20010904/DTD/svg10.dtd">
<svg version="1.0" xmlns="http://www.w3.org/2000/svg"
 width="502.000000pt" height="497.000000pt" viewBox="0 0 502.000000 497.000000"
 preserveAspectRatio="xMidYMid meet">

<g transform="translate(0.000000,497.000000) scale(0.100000,-0.100000)"
fill="white" stroke="none">
<path d="M1730 4444 c-19 -2 -80 -9 -135 -15 -55 -6 -103 -12 -106 -15 -4 -2
70 -196 163 -431 93 -236 181 -458 195 -495 l25 -67 71 -16 c133 -30 286 -40
427 -27 107 11 235 34 247 46 3 3 373 936 373 941 0 1 -44 -7 -97 -18 -72 -15
-137 -20 -243 -20 -137 0 -153 2 -285 37 -239 65 -300 76 -455 80 -80 2 -161
2 -180 0z"/>
<path d="M1715 3268 c-347 -238 -631 -644 -796 -1138 -76 -228 -100 -360 -106
-585 -6 -231 11 -336 77 -473 78 -164 184 -266 365 -353 239 -114 519 -159
1001 -159 l244 0 0 336 c0 316 -1 336 -17 329 -101 -38 -303 -46 -419 -16
-444 115 -686 597 -511 1016 51 122 149 247 253 321 248 177 565 189 832 33
73 -43 207 -178 251 -253 75 -127 119 -311 105 -447 l-7 -69 52 0 51 0 0 243
c0 272 0 271 73 308 43 23 200 59 255 59 18 0 32 5 32 12 0 19 -98 196 -167
303 -137 211 -322 408 -487 520 l-83 56 -84 -21 c-245 -63 -511 -64 -749 -4
-52 13 -97 24 -100 24 -3 0 -32 -19 -65 -42z"/>
<path d="M2125 2545 c-33 -7 -80 -20 -104 -29 -170 -62 -328 -241 -376 -426
-24 -91 -16 -270 15 -359 66 -185 233 -340 422 -391 70 -19 100 -22 193 -17
73 3 129 11 165 24 l55 20 5 149 c3 97 10 157 18 172 20 35 112 73 224 91 74
13 103 22 110 35 17 30 13 204 -6 276 -82 320 -408 525 -721 455z m165 -125
c11 -11 20 -33 20 -49 0 -25 8 -32 65 -60 94 -47 145 -117 145 -203 0 -33 -32
-68 -62 -68 -29 0 -68 38 -68 66 0 32 -44 81 -87 94 -99 33 -219 -35 -199
-114 9 -36 56 -62 146 -82 165 -35 217 -64 251 -139 24 -51 24 -129 0 -180
-23 -51 -85 -107 -144 -130 -42 -16 -47 -21 -47 -50 0 -39 -28 -67 -67 -67
-33 0 -63 34 -63 71 0 24 -7 30 -54 50 -114 47 -189 180 -140 249 29 41 114
19 114 -30 0 -32 29 -77 60 -93 37 -19 133 -19 170 0 63 32 79 98 34 140 -17
16 -55 31 -117 45 -142 33 -182 48 -220 86 -65 65 -74 171 -22 259 28 49 98
102 148 112 23 5 27 11 27 39 0 63 68 96 110 54z"/>
<path d="M3595 2304 c-127 -9 -275 -27 -275 -34 0 -19 356 -44 520 -36 154 8
320 27 320 36 0 18 -429 44 -565 34z"/>
<path d="M3220 2083 l0 -69 138 -20 c191 -27 560 -27 755 0 l137 19 0 68 c0
38 -1 69 -2 69 -2 0 -37 -6 -78 -14 -125 -24 -383 -39 -540 -32 -138 6 -323
26 -382 41 l-28 7 0 -69z"/>
<path d="M3220 1852 l0 -40 103 -7 c168 -11 307 -34 372 -62 73 -32 171 -39
306 -23 52 6 129 14 172 17 l77 6 0 74 c0 71 -1 73 -22 68 -85 -19 -128 -25
-248 -36 -221 -19 -624 1 -742 37 -15 4 -18 -1 -18 -34z"/>
<path d="M2925 1671 c-147 -15 -197 -23 -189 -31 31 -29 556 -41 742 -16 57 8
105 16 108 18 20 21 -506 44 -661 29z"/>
<path d="M4190 1614 c-55 -13 -226 -32 -330 -37 l-55 -2 0 -64 0 -64 85 2 c47
1 132 9 189 17 58 7 119 14 138 14 l33 0 0 75 c0 41 -1 75 -2 74 -2 -1 -28 -7
-58 -15z"/>
<path d="M3616 1515 c-186 -51 -655 -51 -949 1 l-38 7 3 -69 3 -69 135 -18
c164 -23 568 -27 700 -8 47 7 111 15 143 18 l57 6 0 73 c0 41 -1 74 -2 73 -2
0 -25 -7 -52 -14z"/>
<path d="M4208 1355 c-8 -8 -226 -35 -282 -35 -28 0 -68 -3 -88 -6 l-38 -7 0
-64 0 -65 93 7 c50 4 128 11 172 16 44 6 104 13 133 16 l52 6 0 68 c0 60 -2
69 -18 69 -10 0 -21 -2 -24 -5z"/>
<path d="M2630 1192 l0 -69 128 -18 c264 -36 668 -30 841 13 l66 17 3 64 3 64
-28 -7 c-243 -53 -699 -58 -925 -11 -38 8 -74 15 -79 15 -5 0 -9 -31 -9 -68z"/>
<path d="M4165 1084 c-33 -7 -129 -19 -212 -25 l-153 -12 0 -65 0 -65 108 6
c98 6 230 20 310 33 l32 5 0 69 c0 50 -4 70 -12 69 -7 -1 -40 -8 -73 -15z"/>
<path d="M2632 929 l3 -74 35 -3 c19 -1 88 -9 153 -17 135 -17 500 -20 617 -4
41 5 110 12 153 16 l77 6 0 74 c0 65 -2 74 -16 69 -9 -4 -60 -14 -113 -23
-139 -25 -636 -25 -771 0 -52 9 -105 20 -118 23 -23 6 -23 6 -20 -67z"/>
<path d="M4180 824 c-65 -15 -239 -34 -322 -34 l-58 0 0 -65 0 -65 83 0 c45 0
127 7 182 15 55 8 119 15 143 15 l42 0 0 75 c0 41 -3 75 -7 74 -5 -1 -33 -7
-63 -15z"/>
<path d="M2636 733 c-3 -3 -6 -32 -6 -64 l0 -58 38 -11 c20 -6 84 -18 142 -27
130 -19 524 -22 650 -4 47 7 113 15 148 18 l62 6 0 72 0 72 -56 -13 c-31 -7
-109 -18 -172 -25 -217 -22 -735 1 -791 35 -4 3 -11 3 -15 -1z"/>
</g>
</svg>
